<?xml version="1.0" encoding="UTF-8"?>
<svg id="_Слой_1" data-name="Слой 1" xmlns="http://www.w3.org/2000/svg" viewBox="0 0 42.38 40">
  <rect x=".71" width="40" height="40" rx="12" ry="12" fill="#3192d2" stroke-width="0"/>
  <g>
    <path d="M0,12.75h4.13v12.15h5.9v3.46H0v-15.6Z" fill="#fff" stroke-width="0"/>
    <path d="M12.72,12.75h4.42l2.35,6.38c.29.86.53,1.82.82,2.74h.1c.29-.91.53-1.87.82-2.74l2.26-6.38h4.42v15.6h-3.74v-4.61c0-1.58.34-4.01.53-5.57h-.1l-1.3,3.74-1.92,5.16h-2.21l-1.92-5.16-1.25-3.74h-.1c.19,1.56.53,3.98.53,5.57v4.61h-3.7v-15.6Z" fill="#fff" stroke-width="0"/>
    <path d="M30.38,26.41l2.35-2.83c1.1.89,2.5,1.51,3.65,1.51,1.25,0,1.78-.41,1.78-1.1,0-.74-.79-.98-2.11-1.51l-1.94-.82c-1.68-.67-3.14-2.09-3.14-4.34,0-2.66,2.4-4.85,5.81-4.85,1.78,0,3.74.67,5.18,2.09l-2.06,2.59c-1.06-.74-1.97-1.13-3.12-1.13-1.01,0-1.63.36-1.63,1.06,0,.74.89,1.01,2.3,1.56l1.9.74c1.94.77,3.05,2.11,3.05,4.27,0,2.64-2.21,4.99-6.1,4.99-1.97,0-4.22-.72-5.9-2.23Z" fill="#fff" stroke-width="0"/>
  </g>
</svg>